<svg xmlns="http://www.w3.org/2000/svg" xmlns:xlink="http://www.w3.org/1999/xlink" width="88" height="88" viewBox="0 0 88 88"><defs><clipPath id="a"><circle cx="44" cy="44" r="44" transform="translate(1947.464 3142)" fill="#fba650" stroke="#707070" stroke-width="1"/></clipPath><clipPath id="b"><rect width="88" height="88" transform="translate(0.461 0)" fill="none"/></clipPath></defs><circle cx="44" cy="44" r="44" fill="#fdb250"/><g transform="translate(-1947.464 -3142)" clip-path="url(#a)"><g transform="translate(1947.002 3142)" clip-path="url(#b)"><path d="M18.459,186.24c6.981-8.151,13.4-10.815,21.077-11.478s20.713.5,27.33,10.147,14.266,71.769,2.944,84.413c-8.8,9.82-43.877,11.75-53.849,1.3s-4.493-76.225,2.5-84.381Z" transform="translate(0.429 -168.706)" fill="#272623"/><path d="M27.742,308.194c-3.935-9.529-3.843-54.2-2.576-57.811s19.5-1.783,22.487,2.424c2.461,3.465,2.322,18.621,2.65,33.9.134,6.271,5.663,20.505,5.663,20.505C46.943,312.627,27.742,308.194,27.742,308.194Z" transform="translate(0.994 -165.697)" fill="#a044b0"/><path d="M98.787,255.754l2.037-3.032s-.475-8.686-.5-11.584,7.216-18.87,7.216-18.87c1.087,1.249.143,4.285.143,4.285l4.659-9.4c1.912.908.065,4.308.065,4.308l2.636-3.041c1.567,1.622-2.912,7.562-2.912,7.562l3.184-2.686c1.138,3.152-9.432,15.474-9.432,15.474s1.723,8.437,1.843,10.428c1.23-1.055,3.161-6.382,7.391-3.608,0,0-5.35,5.239-10.308,9.6l-2.562,3.944-3.461-3.382Z" transform="translate(4.025 -166.973)" fill="#eb9870"/><path d="M69.964,211.7c-1.788-.018-4.548,2.47-5.308,3.166l.59,5.778c.567.106,6.783,1.922,7.391-3.332C72.756,216.284,73.424,211.745,69.964,211.7Z" transform="translate(2.635 -167.195)" fill="#e89176"/><path d="M71.11,215.852a2.174,2.174,0,0,0-2.253-.977c-1.336.29-2.124,2.4-2.124,2.4a4.821,4.821,0,0,1,3.442,1.613c-.346-2.193-1.723-2.23-1.723-2.23s.313-.8.645-.8a6.152,6.152,0,0,1,2.014,0Z" transform="translate(2.719 -167.067)" fill="#a96d4d"/><path d="M35.663,234.292s.981,13.888-1.567,18.39c0,0,9.3,2.378,8.6.585s.341-17.39.341-17.39l-7.377-1.585Z" transform="translate(1.389 -166.274)" fill="#e8876a"/><path d="M46.263,240.708c4.014,0,19.736-3.12,22.828-25.408,3.405-23.98-13.852-34.97-24.15-34.97-17.271,0-34.163,15.215-25.924,37.868,7.866,21.634,23.233,22.51,27.247,22.51Z" transform="translate(0.687 -168.473)" fill="#eb9870"/><path d="M71.013,197.629c-5.253-6.46-9.221-18.455-26.51-18.349-17.271.106-35.062,16.372-26.828,39.02.8,2.212,2.041,5.175,4.014,5.94,0,0-3.032-9.667.728-10.409,6.764-1.341,6.631-9.824,6.631-9.824s9.078-5.359,10.276-11.483L37.6,202.242s5.414-10.958,6.912-10.958c1.728,0,.424,5.746-4.032,9.806,4.608-.576,12.041-4.576,13.252-8.073,2.3,3.461-6.341,7.5-6.341,7.5,10.373.576,13.28-8.8,14.98-9.806.627-.369,4.9,6.29,6.341,7.5,2.47,2.078,2.3-.576,2.3-.576Z" transform="translate(0.636 -168.516)" fill="#272623"/><path d="M18.366,210.539c2.465,0,5.811,1.212,6.788,4.46a3.051,3.051,0,0,1-1.184,3.322c-.535.369-1.645.359-2.373.71-2.493,1.2-5.424.737-6.857-1.507-1.272-1.991.088-6.986,3.626-6.986Z" transform="translate(0.582 -167.242)" fill="#e89176"/><path d="M17.647,213.569c.267-.346.889-.585,2.926-.12,1.521.355,3.156,2.161,2.912,2.857-.065.17-2.147-.77-3.069-.456a16.892,16.892,0,0,0-3.009,2.4c-.581-1.6,2.249-3.262,3.221-3.387C19.822,213.721,17.445,213.882,17.647,213.569Z" transform="translate(0.706 -167.134)" fill="#a96d4d"/><path d="M100.595,251.5c-.217.295-1.037,1.341-2.286,2.889,1.327.558,2.424,1.746,3.8,3.8,1.06-1.548,1.742-2.553,1.9-2.783,1.124-1.65-2.4-5.3-3.41-3.9Z" transform="translate(4.006 -165.586)" fill="#9ac571"/><path d="M45.58,251.483c3.479.525,27.334,35.366,27.334,35.366s28.509-33.422,29.906-35.348c1.014-1.392,4.534,2.253,3.41,3.9s-29.27,43.232-32.541,42.863-29.21-31.085-29.21-31.085-2.378-16.229,1.1-15.7Z" transform="translate(1.78 -165.586)" fill="#a044b0"/><path d="M27.317,275.666c3.5,8.9,14.211,3.967,17.556,4.3s9.322,1.286,10.99-2.825c4.267-10.2-8.626-20.888-9.451-24.15-.714-2.834-7.322,12.16-11.861,11.506-5.451-.793-8.9,6.921-7.234,11.165Z" transform="translate(1.096 -165.527)" fill="#a044b0"/><path d="M35.627,248.241c.24.378,1.249,3.82,4.156,3.94s3.106-2.894,3.106-2.894,1.359.88,1.783,1.124.028,5.465-.359,5.612-4.23-2.433-4.23-2.433-2.88,2.852-3.359,2.852-5.806-8.2-5.806-8.2,4.479-.378,4.709,0Z" transform="translate(1.26 -165.713)" fill="#bd69d2"/><path d="M27.32,275.648a9.2,9.2,0,0,0,2.037,3.032,4.338,4.338,0,0,0,.341.3c.12.092.23.194.355.281a7.467,7.467,0,0,0,.77.488,7.634,7.634,0,0,0,1.682.687,11.955,11.955,0,0,0,3.617.4,29.537,29.537,0,0,0,3.659-.369c1.221-.18,2.433-.419,3.668-.562.152-.018.309-.037.465-.046s.313-.018.47-.018.313.014.47.023l.461.055c.613.069,1.23.138,1.843.194a18.253,18.253,0,0,0,3.686.037,8.519,8.519,0,0,0,1.8-.364,5.3,5.3,0,0,0,1.622-.806,4.085,4.085,0,0,0,1.184-1.341l.106-.2.092-.207c.06-.138.115-.281.161-.424l.152-.433a3.387,3.387,0,0,0,.138-.433,11.111,11.111,0,0,0,.419-3.613,14.252,14.252,0,0,0-.659-3.59,22.133,22.133,0,0,0-1.392-3.391,45.655,45.655,0,0,0-3.958-6.221l-2.221-2.967c-.369-.5-.733-1-1.069-1.521a6.313,6.313,0,0,1-.839-1.659l.041-.009a6.071,6.071,0,0,0,.9,1.6c.359.5.746.982,1.124,1.47.77.968,1.562,1.922,2.313,2.9a39.708,39.708,0,0,1,4.073,6.221,20.349,20.349,0,0,1,1.424,3.456,14.417,14.417,0,0,1,.636,3.7,11.286,11.286,0,0,1-.488,3.719,3.924,3.924,0,0,1-.152.447l-.166.438a3.9,3.9,0,0,1-.18.433l-.106.212-.12.207a4.354,4.354,0,0,1-1.286,1.387,5.726,5.726,0,0,1-1.7.793,9.583,9.583,0,0,1-1.834.336,22.21,22.21,0,0,1-3.714-.032c-.617-.051-1.23-.115-1.848-.175l-.461-.042c-.152,0-.3-.014-.452,0s-.3.018-.456.037-.3.032-.452.055c-1.212.175-2.424.461-3.645.668a24.941,24.941,0,0,1-3.7.392,12.188,12.188,0,0,1-3.714-.456l-.226-.065-.221-.083c-.147-.055-.295-.106-.438-.175a8.072,8.072,0,0,1-1.617-.958c-.124-.092-.24-.2-.359-.3a3.753,3.753,0,0,1-.341-.323,8.755,8.755,0,0,1-1.931-3.166l.041-.014Z" transform="translate(1.112 -165.513)" fill="#bd69d2"/><path d="M11.542,293.432c-.774,2.074-19.828,52.2-18.948,53.282,1.1,1.346,3.534,3.152,4.783.544,2.332-4.852,10.769-21.662,15.851-34.6a130.959,130.959,0,0,0,5.207-16.718c.511-2.166,15.059-36.845,15.05-44.177,0-2.488.811-4.926-5.193-4.926-7.792-1.064-15.976,44.522-16.75,46.6Z" transform="translate(-0.303 -165.764)" fill="#a044b0"/><path d="M28.513,264.459a2.194,2.194,0,0,1,.419-.585,2.415,2.415,0,0,1,.571-.438,1.775,1.775,0,0,1,.691-.244,1.1,1.1,0,0,1,.723.129,2.647,2.647,0,0,0-.65.171c-.194.088-.387.184-.576.29-.378.212-.742.461-1.18.677Z" transform="translate(1.162 -165.097)" fill="#bd69d2"/><path d="M24.533,275.964c.157-.613.336-1.217.535-1.811s.41-1.193.65-1.774.516-1.152.742-1.737.419-1.189.6-1.792.359-1.207.562-1.8.387-1.2.594-1.793c.424-1.18.876-2.359,1.387-3.516l.037.014A35.932,35.932,0,0,1,28.62,265.4c-.2.594-.424,1.184-.645,1.774s-.456,1.175-.705,1.751-.484,1.166-.682,1.76-.364,1.207-.558,1.811-.429,1.184-.668,1.765-.5,1.157-.788,1.719l-.041-.014Z" transform="translate(1 -165.156)" fill="#bd69d2"/><path d="M65.71,250.74h-.022a.346.346,0,0,1-.323-.369,85.4,85.4,0,0,0-.691-17.412.346.346,0,0,1,.684-.1,86.093,86.093,0,0,1,.7,17.553A.346.346,0,0,1,65.71,250.74Z" transform="translate(2.635 -166.345)" fill="#0b0a0a"/><path d="M55.191,256.283h-.022a.346.346,0,0,1-.323-.369,85.092,85.092,0,0,0-.691-17.412.346.346,0,0,1,.684-.1,85.785,85.785,0,0,1,.7,17.554A.346.346,0,0,1,55.191,256.283Z" transform="translate(2.207 -166.119)" fill="#0b0a0a"/><path d="M60.83,263.51a.346.346,0,0,1-.331-.445c1.023-3.414,1.211-10.435,1.233-14.316a116.662,116.662,0,0,0-.668-14.373.346.346,0,0,1,.684-.1,117.457,117.457,0,0,1,.675,14.475c-.022,3.917-.214,11.013-1.262,14.51a.346.346,0,0,1-.331.247Z" transform="translate(2.465 -166.287)" fill="#0b0a0a"/><path d="M21.444,247.968a.346.346,0,0,1-.345-.323,86.4,86.4,0,0,1,.7-17.549.346.346,0,1,1,.684.1,85.709,85.709,0,0,0-.691,17.407.346.346,0,0,1-.323.369Z" transform="translate(0.853 -166.457)" fill="#0b0a0a"/><path d="M16.931,253.535a.346.346,0,0,1-.331-.246c-1.048-3.5-1.24-10.591-1.262-14.508a117.434,117.434,0,0,1,.675-14.475.346.346,0,0,1,.684.1,116.842,116.842,0,0,0-.668,14.373c.021,3.881.21,10.9,1.233,14.316a.346.346,0,0,1-.331.445Z" transform="translate(0.625 -166.693)" fill="#0b0a0a"/><path d="M41.855,211.729l.051-.35a3.763,3.763,0,0,0-.069-.719,4.7,4.7,0,0,0-.253-.7,3.865,3.865,0,0,0-.452-.7,4.873,4.873,0,0,0-.622-.65,4.277,4.277,0,0,0-.82-.525,3.971,3.971,0,0,0-.986-.341c-.18-.028-.359-.046-.539-.065a5.472,5.472,0,0,0-.553.028,2.086,2.086,0,0,0-.535.115,2.381,2.381,0,0,0-.493.194,3.108,3.108,0,0,0-.793.544,2.8,2.8,0,0,0-.544.6c-.129.175-.249.359-.359.544l-.2.438c-.106.24-.161.378-.161.378a.907.907,0,0,0,1.548.894l.111-.134s.074-.088.18-.244c.051-.083.115-.17.189-.281a3.813,3.813,0,0,1,.263-.3,1.6,1.6,0,0,1,.323-.29,1.5,1.5,0,0,1,.355-.226c.055-.051.129-.037.189-.069a.592.592,0,0,1,.2-.046c.069,0,.138-.018.207-.023a1.211,1.211,0,0,0,.226.023,2.078,2.078,0,0,1,.461.152,3.53,3.53,0,0,1,.442.253,2.679,2.679,0,0,1,.359.327,1.773,1.773,0,0,1,.253.327c.069.1.1.2.147.267,0,.032.037.018.051.083v.359a.915.915,0,0,0,1.82.134h0Z" transform="translate(1.405 -167.359)" fill="#a16949"/><path d="M56.022,211.4l.028-.12c.018-.083.037-.189.078-.327a6.1,6.1,0,0,1,.419-1.087,4.515,4.515,0,0,1,.419-.705,3.825,3.825,0,0,1,.668-.723,3.076,3.076,0,0,1,1.014-.558,2.308,2.308,0,0,1,.6-.124l.157-.018h.166c.083,0,.115,0,.244.014.111.014.226.028.327.046l.272.065a4.98,4.98,0,0,1,.5.175,5.091,5.091,0,0,1,.885.47,4.948,4.948,0,0,1,.71.608,3.77,3.77,0,0,1,.535.673,2.492,2.492,0,0,1,.194.341,2.931,2.931,0,0,1,.143.327,3.509,3.509,0,0,1,.161.571,3.467,3.467,0,0,1,.046.382l.009.134a.84.84,0,0,1-1.654.263l-.037-.157-.018-.065a1.288,1.288,0,0,0-.046-.18,1.466,1.466,0,0,0-.106-.267.713.713,0,0,0-.088-.166c-.037-.06-.074-.115-.115-.17a2.5,2.5,0,0,0-.327-.369,3.709,3.709,0,0,0-.456-.346,2.978,2.978,0,0,0-.539-.277,2.29,2.29,0,0,0-.286-.092l-.138-.032a.505.505,0,0,1-.083-.009.732.732,0,0,0-.175-.009H59.5l-.055.009a.657.657,0,0,0-.207.037,1.2,1.2,0,0,0-.4.2,3.089,3.089,0,0,0-.364.373,3.533,3.533,0,0,0-.3.438c-.088.147-.161.295-.226.424s-.111.249-.152.346l-.083.221-.023.074-.009.018a.847.847,0,0,1-1.64-.419Z" transform="translate(2.283 -167.356)" fill="#a16949"/><path d="M48.763,206.527c.746,0,.544,2.553,2.686,5.073,2.668,1.829,3.309,5.562,1.06,6.7-8.359,2.972-4.5-11.773-3.746-11.773Z" transform="translate(1.924 -167.406)" fill="#d27259"/><path d="M35.305,224.981a10.871,10.871,0,0,0,9.336,6.612A12.4,12.4,0,0,0,55.3,226.972c-5.161.364-14.745-1.092-19.994-1.991Z" transform="translate(1.439 -166.654)" fill="#7a2f15"/><path d="M34.477,222.365a11.353,11.353,0,0,0,.862,2.723c5.248.894,14.828,2.355,19.994,1.991a17.211,17.211,0,0,0,2.47-3.654l-23.326-1.06Z" transform="translate(1.405 -166.76)" fill="#f2e7dc"/></g></g></svg>