<svg xmlns="http://www.w3.org/2000/svg" xmlns:xlink="http://www.w3.org/1999/xlink" width="88" height="88" viewBox="0 0 88 88"><defs><clipPath id="a"><circle cx="44" cy="44" r="44" transform="translate(0.2)" fill="#c8c8c8"/></clipPath><clipPath id="b"><rect width="88" height="88" transform="translate(0.2 -0.002)" fill="none"/></clipPath></defs><g transform="translate(-0.2)"><circle cx="44" cy="44" r="44" transform="translate(0.2)" fill="#f36f56"/><g clip-path="url(#a)"><g transform="translate(0 0.002)" clip-path="url(#b)"><path d="M258.7,120.5s-.119,10.469-2.86,19.018l-9.058-1.476s-.229-11.423-1.288-17.519S258.7,120.5,258.7,120.5Z" transform="translate(-208.007 -42.419)" fill="#edae85"/><path d="M262.1,101.465c-1.091.183-3.227,2.186-3.222,3.763l3.245,8.288c.775-.014,2.072.94,3.291.816,4.455-1.059,4.561-4.245,4.263-7.091a6.521,6.521,0,0,0-7.577-5.776Z" transform="translate(-191.887 -62.159)" fill="#e89271"/><path d="M237.325,104.98c3.19-.009,6.39,1.384,7.38,2.59,0,0,1.93,4.46.857,6.5s-2.443,4.116-5.744,4.85-6.486-2.613-7.045-6.66-.032-7.261,4.552-7.279Z" transform="translate(-223.427 -57.817)" fill="#e89271"/><path d="M264.673,104.4a2.157,2.157,0,0,0-2.237-.963c-1.32.293-2.095,2.384-2.095,2.384a4.791,4.791,0,0,1,3.415,1.586c-.353-2.173-1.714-2.2-1.714-2.2s.307-.8.637-.8a5.982,5.982,0,0,1,1.994-.009Z" transform="translate(-190.127 -59.722)" fill="#592900"/><path d="M259.724,87.677c24.074-2.484,22.823,21.186,23.584,27.136s7.655,19.289,7.646,25.8c0,4.309-1.476,18.143-22.914,19.417-20.65,1.118-28.759-8.223-30.129-28.1C237.255,122.436,235.655,90.166,259.724,87.677Z" transform="translate(-217.397 -78.798)" fill="#edbc9a"/><path d="M235.545,93.561c-1.558,1.444-5.051,8.242.041,12.271,2.649,1.316,2.8-2.59,3.117-.793s6.362,6.5,20.994-6.995S255.92,72.6,248.522,80.465c-6.138-4.414-18.23,2.544-12.977,13.1Z" transform="translate(-223.031 -90.243)" fill="#723101"/><path d="M246.389,104.827c5.574-7.33,16.424-1.756,21.1-1.9s8.6-4.63,12.633-3.048,3.259,4.818,3.259,4.818-.651,1.957,1.577,4.171c-.5,4.96.028,7.027,2.182,8.269,2.012-1.109.7-2.8-.422-4.877a5.576,5.576,0,0,0-.935-6.692c2.131-7.022-1.132-9.232-4.391-11.047-.674-5.345-5.757-5.721-8.75-5.84-5.226-3.245-9.126-1.27-9.126-1.27-2.746-3.255-8.728-.362-11.716,1.476s-7.288,1.724-13,6.7-3.351,9.543-3.351,9.543-2.961,9.929,1.467,10.955c-1.274,6.922,2.118,7.834,2.118,7.834s.651,5.363,4.565,4.62-.014-4.639-.014-4.639,1.7-.665,1.549-5.235-4.323-6.509,1.256-13.839Z" transform="translate(-221.164 -80.67)" fill="#723101"/><path d="M234.862,83.332a5.847,5.847,0,0,1,2.769-1.985,7.3,7.3,0,0,1,1.691-.413,5.276,5.276,0,0,1,1.756.1,4.273,4.273,0,0,1,2.8,1.985,4.61,4.61,0,0,1,.49,1.673,7.136,7.136,0,0,1-.06,1.742l-.261-.5a6.513,6.513,0,0,1,2.475,1.338,4.579,4.579,0,0,1,.509.559,1.956,1.956,0,0,1,.206.325,3.671,3.671,0,0,1,.183.353,2.972,2.972,0,0,1,.2.77c.014.133.028.266.037.4-.014.133-.028.266-.041.394a4.359,4.359,0,0,1-1.4,2.517,8.251,8.251,0,0,1-2.255,1.485.058.058,0,0,1-.073-.023.055.055,0,0,1,.014-.064,17.95,17.95,0,0,0,1.719-1.916,4.085,4.085,0,0,0,.889-2.113,2.491,2.491,0,0,1,.014-.261l-.037-.257a2.361,2.361,0,0,0-.133-.49,3.745,3.745,0,0,0-.247-.463,3.088,3.088,0,0,0-.348-.436,6.9,6.9,0,0,0-2-1.325l-.06-.027a.4.4,0,0,1-.206-.468,7.086,7.086,0,0,0,.344-1.536,2.878,2.878,0,0,0-.252-1.531,2.256,2.256,0,0,0-1.091-1.063,3.722,3.722,0,0,0-1.513-.307,11.651,11.651,0,0,0-1.545.1,10.665,10.665,0,0,0-1.54.28,10.844,10.844,0,0,0-2.952,1.228.057.057,0,0,1-.078-.014.056.056,0,0,1,0-.06Z" transform="translate(-220.716 -86.71)"/><path d="M241.736,81.262a3.777,3.777,0,0,1,2.4-.866c.225.018.449.018.669.055a5.21,5.21,0,0,1,.651.165,3.617,3.617,0,0,1,1.169.614,7.348,7.348,0,0,1,1.613,1.98,14.174,14.174,0,0,1,1.169,2.219,5.5,5.5,0,0,1,.422,2.549,4.913,4.913,0,0,1-.875,2.526,5.063,5.063,0,0,1-2.063,1.65,6.277,6.277,0,0,1-2.475.5.049.049,0,0,1-.055-.05.056.056,0,0,1,.032-.05h0a14.766,14.766,0,0,0,2.086-1.141,5.83,5.83,0,0,0,1.531-1.563,5.2,5.2,0,0,0,.811-1.994,7.859,7.859,0,0,0,.018-2.274,4.64,4.64,0,0,0-.885-2.177,5.327,5.327,0,0,0-1.82-1.426,8.879,8.879,0,0,0-.995-.467,5.507,5.507,0,0,0-1.054-.284,6.312,6.312,0,0,0-2.306.128.065.065,0,0,1-.064-.041.059.059,0,0,1,.018-.055Z" transform="translate(-212.477 -87.317)" fill="#3e1b00"/><path d="M242.019,88.146a5.038,5.038,0,0,1,1.925-.33c.083,0,.165,0,.252.009l.261.046c.083.014.17.027.261.05s.174.064.266.1a1.681,1.681,0,0,1,.518.307c.073.073.147.151.215.234a1.592,1.592,0,0,1,.156.27,3.107,3.107,0,0,1,.211,1.018,1.8,1.8,0,0,0,.252.825,1.509,1.509,0,0,0,.651.545,3.166,3.166,0,0,0,.417.138c.147.027.293.046.445.064a14.32,14.32,0,0,1,1.875.2,4.524,4.524,0,0,1,1.916.77,3.269,3.269,0,0,1,1.187,1.751c.023.083.05.165.073.248a2.373,2.373,0,0,1,.037.252c.023.165.041.335.055.5a6.963,6.963,0,0,1-.078.981.057.057,0,0,1-.064.046.065.065,0,0,1-.041-.037h0a5.277,5.277,0,0,0-1.843-2.81,5.869,5.869,0,0,0-1.494-.715,18.583,18.583,0,0,1-1.774-.61,4.055,4.055,0,0,1-1.641-1.118c-.449-.5-.669-1.251-.958-1.6a1.283,1.283,0,0,0-.5-.38c-.055-.023-.11-.05-.165-.078l-.193-.06-.2-.064-.211-.046c-.564-.147-1.183-.211-1.811-.394h0a.056.056,0,0,1-.041-.069c0-.018.018-.032.037-.037Z" transform="translate(-212.16 -78.415)" fill="#3e1b00"/><path d="M247.868,87.506a4.06,4.06,0,0,1,1.664-.582,2.709,2.709,0,0,1,1.833.4,3.166,3.166,0,0,1,.362.339,4.36,4.36,0,0,1,.27.4,6.792,6.792,0,0,1,.371.821l.637,1.6c.055.133.1.266.151.4s.1.275.147.367c.023.055.046.105.064.16l.087.142a2.317,2.317,0,0,0,.193.28c.28.367.729.669,1.123,1.192A2.208,2.208,0,0,1,255.2,94a2.354,2.354,0,0,1,.023.536c-.023.174-.069.335-.105.5a3.632,3.632,0,0,1-1.036,1.471.053.053,0,0,1-.078,0,.046.046,0,0,1-.014-.046h0a10.646,10.646,0,0,0,.3-1.586,1.524,1.524,0,0,0-.417-1.132,9.663,9.663,0,0,1-1.063-1.329,2.357,2.357,0,0,1-.211-.449l-.083-.238a2.326,2.326,0,0,1-.041-.248c-.009-.082-.027-.17-.027-.243v-.206c0-.138,0-.28-.014-.413a3.4,3.4,0,0,0-.371-1.577,2.1,2.1,0,0,0-1.141-.935,5.42,5.42,0,0,0-1.384-.335c-.513-.073-1.054-.06-1.641-.151h0a.065.065,0,0,1-.046-.069.046.046,0,0,1,.028-.037Z" transform="translate(-205.129 -79.516)" fill="#3e1b00"/><path d="M253.928,88.605a1.93,1.93,0,0,1,.747.527,1.762,1.762,0,0,1,.417.743c.06.293.014.619.083.889a2.413,2.413,0,0,0,.367.779,2.014,2.014,0,0,1,.344.857,1.991,1.991,0,0,1-.037.995,1.584,1.584,0,0,1-.646.843,1.351,1.351,0,0,1-.963.215.066.066,0,0,1-.05-.073l.009-.023h0a4.86,4.86,0,0,0,.394-.7,3.194,3.194,0,0,0,.156-.578c.032-.188.092-.394.124-.633.014-.234.06-.49.1-.766a1.375,1.375,0,0,0-.124-.793,3.808,3.808,0,0,0-.564-.623,2.078,2.078,0,0,1-.339-.72,2.6,2.6,0,0,1-.11-.876h0a.074.074,0,0,1,.069-.069h.023Z" transform="translate(-197.937 -77.471)" fill="#3e1b00"/><path d="M234.829,107.376c.275-.362.917-.605,3.016-.128,1.577.358,3.268,2.214,3.016,2.934-.06.179-2.214-.784-3.163-.454a17.166,17.166,0,0,0-3.1,2.489c-.6-1.659,2.31-3.383,3.31-3.511-.83-1.173-3.287-1-3.08-1.329Z" transform="translate(-221.114 -55.414)" fill="#592900"/><path d="M267.145,114.492l.944-2.425a26.035,26.035,0,0,0,3.7-.752c-1.164,4.969-6.353,9-12.876,9.539-6.628.55-12.482-2.682-14.356-7.517,16.639,4.547,22.584,1.155,22.584,1.155Z" transform="translate(-209.064 -50.214)" fill="#7a300d"/><path d="M244.893,113.775a9.149,9.149,0,0,1-.6-2.571c-.009-.083-.009-.17-.014-.252,11.849,2.264,19.481,2.186,24.138,1.554l-.944,2.425s-5.945,3.392-22.584-1.155Z" transform="translate(-209.396 -50.651)" fill="#f1dbcb"/><path d="M280.6,144.863c-.656-.7-4.671-2.805-2.805-9.874a12.279,12.279,0,0,1-3.268-.376s-.142-.188-.325-.468a19.913,19.913,0,0,1-.518-2.246c.848-.468,7.054-.986,7.054-.986s-5.56.33-6.821-.234a2.949,2.949,0,0,1-.422-.371c-.046-.8-.092-1.641-.092-2.53.793,0,8.361-1.265,8.361-1.265s-6.4.284-8.315.33a21.6,21.6,0,0,1,.422-3.557.363.363,0,0,1,.183-.046c1.123,0,8.549-.518,8.549-.518s-7.146-.234-8.173-.889a13.355,13.355,0,0,1,1.215-2.576c.138-.981,13.169.284,13.032,1.779-.183,2.154-1.073,8.191-1.073,8.191l-3.644,13.706" transform="translate(-174.458 -41.099)" fill="#edbc9a"/><path d="M291.019,116.617c0,4.378-1.485,18.486-23.034,19.8-20.783,1.118-28.924-8.37-30.308-28.653,0,0,4.254,23.982,26.05,22.717,6.605-.926,5.551-4.474,6.413-4.474s2.4,2.92,2.4,2.92,8.333-.44,11.922-5.157c8.54-8.682,2.732-18.289,5.029-14.888,1.242,1.944,1.531,7.733,1.531,7.733Z" transform="translate(-217.325 -54.474)" fill="#723101"/><path d="M244.76,102.112c1.32-.284,2.122,1.132,1.884,2.219-.234,1.041.05,1.893-1.508,2.035S243.431,102.4,244.76,102.112Z" transform="translate(-209.909 -61.302)" fill="#a16949"/><path d="M255.853,101.122c1.32-.284,2.122,1.137,1.888,2.223-.238,1.041.046,1.893-1.508,2.031C254.675,105.472,254.482,101.361,255.853,101.122Z" transform="translate(-196.616 -62.49)" fill="#a16949"/><path d="M251.151,101.056c1.224,0,1.591,4.538,3.988,7.082,4.387,2.315,6.394,7.192,2.714,8.659C241.713,119.635,249.923,101.056,251.151,101.056Z" transform="translate(-204.965 -62.525)" fill="#e87a69"/></g></g></g></svg>