<svg xmlns="http://www.w3.org/2000/svg" xmlns:xlink="http://www.w3.org/1999/xlink" width="88" height="88" viewBox="0 0 88 88"><defs><clipPath id="a"><circle cx="44" cy="44" r="44" transform="translate(-0.2)" fill="#c8c8c8"/></clipPath><clipPath id="b"><rect width="88" height="88" transform="translate(-0.2 0)" fill="none"/></clipPath></defs><g transform="translate(0.2)"><circle cx="44" cy="44" r="44" transform="translate(-0.2)" fill="#893976"/><g clip-path="url(#a)"><g transform="translate(0 0)" clip-path="url(#b)"><path d="M228.421,140.923c-1.714,3.415-5.533,3.1-3.585,13.715h.876s.678-4.373,2.15-5.647c.481-.912-.2,3.979,1.118,5.487,1.352,1.513,6.289,6.248,8,5.088.715-.477-2.429-3.814-3.548-7.792A14.271,14.271,0,0,1,233,144.3c.358-.678,14.017-21.709,13.256-22.341-.358-.28-5.175-3.259-5.533-3.539-.72-.6-12.3,22.5-12.3,22.5Z" transform="translate(-219.277 133.519)" fill="#2c2b28"/><path d="M231.9,184.045c-2.911-11.492,4.735-17.813,8.04-25.523,2.072-4.135,3.346-10.419,5.414-17.932,2.672-26.6-3.58-45.123-6.844-47.387-3.227-2.264,2.943-21.549,2.943-21.549l25.921-8.031s1.591,4.969,2.668,7.357a68.422,68.422,0,0,1,6.17,29.456c.041,10.336-8.558,32.916-13.178,39.719-6.257,9.14-9.754,22.3-14.1,32.16-2.755,6.248-4.061,12.683-9.076,15.186C237.992,188.376,232.813,186.9,231.9,184.045Z" transform="translate(-210.93 67.776)" fill="#71310e"/><path d="M231.382,119.3a4.145,4.145,0,0,0,.44.834c.083.124.2.238.28.358l.358.358a4.166,4.166,0,0,0,.44.358,2.866,2.866,0,0,0,.477.275,2.639,2.639,0,0,0,.518.2c.2.041.358.124.518.16a2.151,2.151,0,0,1,.477.156c.16.041.321.082.44.124a1.474,1.474,0,0,0,.4.082.944.944,0,0,1,.316.078c.16.041.28.082.28.082v.037a.716.716,0,0,1-.28.041c-.078,0-.2.041-.316.041a1.452,1.452,0,0,1-.4,0,2.134,2.134,0,0,1-.481-.041c-.156-.041-.358-.078-.518-.124a3.093,3.093,0,0,1-.555-.2c-.2-.078-.358-.2-.518-.275l-.477-.358a2.139,2.139,0,0,1-.44-.4c-.124-.124-.238-.28-.358-.4-.078-.156-.2-.275-.238-.394a3.667,3.667,0,0,1-.358-.917V119.3Z" transform="translate(-210.774 134.588)" fill="#41403a"/><path d="M231.106,119.931a7.951,7.951,0,0,0,.6.752,2.327,2.327,0,0,0,.321.316c.124.128.238.2.358.321s.28.2.4.316a2.462,2.462,0,0,0,.44.28l.477.238a2.565,2.565,0,0,0,.477.2,2.274,2.274,0,0,1,.477.2,1.373,1.373,0,0,1,.44.16,3.667,3.667,0,0,1,.358.124.974.974,0,0,0,.28.078c.16.041.28.083.28.083a1.207,1.207,0,0,1-.28.078,1.323,1.323,0,0,0-.321.082,1.268,1.268,0,0,1-.394.037h-.523c-.156-.037-.358-.037-.555-.078s-.4-.124-.6-.16a2.532,2.532,0,0,1-.559-.275c-.156-.128-.358-.243-.518-.358a2.327,2.327,0,0,1-.435-.44,2.8,2.8,0,0,1-.321-.477l-.238-.477a.867.867,0,0,1-.124-.4.925.925,0,0,1-.041-.316.543.543,0,0,1,0-.284Z" transform="translate(-211.134 135.346)" fill="#41403a"/><path d="M273.353,68.818l2.5-3.3-9.837-9.741c5.537-2.585,9.438,4.5,9.438,4.5L274.5,22.467c4.02.752,2.388,21.429,2.388,21.429l.752.28,5.931-22.58c3.144,3.736-2.585,21.7-2.585,21.7l8.6-15.186c1.233,5.372-6.491,17.451-6.491,17.451l12.981-5.446c-1.513,4.5-11.748,7.435-11.748,7.435,1.316,11.528-1.43,16.9-3.7,20.2l-2.585,3.9-4.685-2.828Z" transform="translate(-169.209 17.343)" fill="#fcc5a7"/><path d="M276.753,45.63c1.114-1.623-3.108-4.767-4.1-3.374-1.393,1.911-4.62,6.642-4.62,6.642l3.864,3.5,4.859-6.766Z" transform="translate(-166.797 41.719)" fill="#e77d32"/><path d="M245.563,41.836c1.879.28,9.915,11.492,16.923,20.994,5.973,8.109,11.148,14.746,11.148,14.746s9.956-13.518,12.225-17.295c2.228-3.818,7.682-14.352,11.822-12.248,2.471,1.274,4.1,2.429,4.222,4.414.28,3.777-8.205,15.186-17.12,24.528-5.5,5.766-8.48,11.533-11.23,11.372-7.087-.4-29.1-30.89-29.1-30.89s-2.388-16.135,1.114-15.622Z" transform="translate(-196.048 41.617)" fill="#f69e4d"/><path d="M240.811,143.662c-.518,3.14-3.782,7.316-3.346,9.342.4,1.627,2.388,6.124,3.346,8.709h1.114s-.358-5.689-.041-5.606,2.549,4.332,4.144,5.249,6.211,2.342,7.045,1.233c.477-.637-3.067-3.342-5.336-7.435-1.554-2.75-2.306-4.533-2.269-5.606-.16-.083,4.382-24.29,3.662-24.652-1.114-.6-5.693-1.549-6.729-2.1C241.65,122.306,240.811,143.662,240.811,143.662Z" transform="translate(-203.522 138.769)" fill="#2c2b28"/><path d="M257.918,190.794c7.284-8.466,5.129-23.057,4.254-33.315.28-9.223-.28-41.424-6.133-63.092-5.771-1.311-15.727-3.621-15.727-3.621l.4-23.492s-11.505,16.855-8.32,31.165,9.236,19.88,15.37,46.118a88.108,88.108,0,0,1,1.911,13.715c-.16,4.891-7.527,27.072-.637,31.051C252.582,191.747,256.923,191.908,257.918,190.794Z" transform="translate(-210.233 72.157)" fill="#71310e"/><path d="M256.733,60.1a2.5,2.5,0,0,1-.078-.358,2.433,2.433,0,0,1,.037-.752,1.735,1.735,0,0,1,.16-.394.839.839,0,0,1,.2-.316,1.554,1.554,0,0,1,.2-.16l.078-.041a.115.115,0,0,1-.037.082c-.041.037-.041.124-.082.238-.041.2-.124.435-.16.674-.078.238-.124.518-.2.678a.984.984,0,0,1-.119.348Z" transform="translate(-180.463 61.123)" fill="#e77d32"/><path d="M256.182,60.076a.939.939,0,0,1,.041-.435,3.116,3.116,0,0,1,.321-.917c.037-.078.124-.156.156-.238s.128-.124.16-.2a2.707,2.707,0,0,1,.4-.28,1.23,1.23,0,0,1,.316-.078h.128l-.083.078c-.078.041-.124.124-.238.2a.519.519,0,0,0-.124.156c-.041.041-.083.128-.128.16a4.311,4.311,0,0,0-.238.394c-.156.28-.316.559-.477.8a3.5,3.5,0,0,1-.234.358Z" transform="translate(-181.026 60.946)" fill="#e77d32"/><path d="M243,82.388l6.367-4.886-5.89,5.487Z" transform="translate(-196.83 84.43)" fill="#561b06"/><path d="M256.633,123.991s-.078-.917-.2-2.466c-.083-.793-.165-1.751-.238-2.865s-.2-2.342-.321-3.695-.238-2.824-.4-4.373c-.124-1.554-.28-3.181-.394-4.891-.28-3.374-.752-6.958-1.357-10.534-.321-1.792-.6-3.58-.953-5.326-.321-1.751-.678-3.461-1.077-5.088-.124-.4-.2-.8-.321-1.2a4.98,4.98,0,0,0-.435-1.031c0-.041-.238-.16-.4-.238s-.358-.16-.518-.238a11.3,11.3,0,0,0-1.073-.4c-1.476-.518-2.869-.953-4.144-1.352-1.316-.4-2.5-.747-3.543-1.031-1.077-.321-1.989-.559-2.755-.8-1.513-.435-2.388-.674-2.388-.674v-.041s.875.2,2.429.518c.752.16,1.71.4,2.787.678,1.077.238,2.269.555,3.585.912s2.75.752,4.217,1.233c.358.124.752.28,1.118.4.2.078.358.156.555.238.078.041.2.124.28.156l.078.041.041.041.041.041.156.156a4.487,4.487,0,0,1,.518,1.233c.128.4.243.834.362,1.233.394,1.669.715,3.374,1,5.166.28,1.751.518,3.539.752,5.372.435,3.58.834,7.2,1.316,10.538.238,1.669.435,3.3.6,4.85s.28,3.021.4,4.373c.078,1.352.156,2.585.2,3.7s.078,2.067.078,2.86c.041,1.591,0,2.5,0,2.5h.009Z" transform="translate(-205.088 84.733)" fill="#561b06"/><path d="M237.789,97.343s.16.435.44,1.192c.124.358.28.834.477,1.352.16.518.358,1.114.559,1.788s.394,1.352.6,2.15c.2.747.358,1.549.518,2.425.156.834.358,1.71.518,2.581s.4,1.751.6,2.668c.078.435.2.876.28,1.352.078.435.16.912.238,1.352.041.238.083.435.124.674s.041.435.083.678c.037.435.078.871.156,1.311.083.834.128,1.669.16,2.466v2.223c-.041.678-.041,1.316-.124,1.875q-.062.839-.124,1.43c-.083.8-.16,1.233-.16,1.233h-.041s0-.435-.041-1.27v-1.43c-.037-.559-.037-1.2-.037-1.875-.041-.678-.083-1.435-.083-2.186-.041-.8-.078-1.591-.124-2.429-.083-.834-.124-1.705-.2-2.622l-.124-1.352c-.041-.435-.124-.912-.16-1.352-.124-.912-.316-1.788-.518-2.663s-.477-1.71-.715-2.544-.477-1.591-.678-2.384c-.2-.752-.358-1.471-.555-2.15-.16-.674-.321-1.27-.44-1.829s-.238-1-.316-1.394c-.16-.793-.28-1.228-.28-1.228l-.023-.041Z" transform="translate(-203.085 108.24)" fill="#561b06"/><path d="M233.145,83.573l-1.233,3.7s-7.366,4.57-9.837,6.083S209.1,108.66,209.1,108.66c1.627.238,4.538-1.393,4.538-1.393l-5.455,8.824c1.792,1.155,3.662-2.223,3.662-2.223l-1.16,3.818c2.191.477,4.859-6.44,4.859-6.44l-.6,4.135c3.264-.715,8.081-16.14,8.081-16.14l8.8-4.015s-1.751,8.746,1.834,8.191c0,0,1.751-7.747,2.828-14.233.477-1.036,1.627-4.249,1.627-4.249l-4.969-1.361Z" transform="translate(-238.614 91.716)" fill="#fcc5a7"/><path d="M222.314,80.936c-2.191,4.731-3.222,7.87-3.066,8.109,1.077,1.352,4.937,1.352,4.937,1.352a81.784,81.784,0,0,1,2.947-7.747l-4.818-1.714Z" transform="translate(-225.354 88.551)" fill="#e77d32"/><path d="M246.038,43.952c.16,3.74-1.833,39.159,1.911,49.656,0,0,11.822,3.626,11.822,1.591-.037-2.7-4.818-12.165-6.449-28.108,3.942-7.99-1.43-15.823-4.854-19.875-1.393-1.632-2.429-3.653-2.429-3.264Z" transform="translate(-193.654 44.112)" fill="#e77d32"/><path d="M266.022,98.184c-1.114-2.865-5.3-14.315-5.418-19.72-.316-15.186-.2-30.253-2.627-33.714-2.984-4.176-21.141-6-22.415-2.425-1.233,3.539-1.352,46.475,2.388,56.968-1.673,2.585-3.58,6.165-3.58,6.165s25.362,3.218,34.516-.518Z" transform="translate(-207.188 39.935)" fill="#b08769"/><path d="M236.126,65.463a1.442,1.442,0,0,1-.078-.238c-.041-.16-.128-.435-.2-.752a9.284,9.284,0,0,1,0-2.979,12.175,12.175,0,0,1,1.471-4.451,8.214,8.214,0,0,1,1.833-2.306,5,5,0,0,1,1.435-.834,3.732,3.732,0,0,1,1.751-.2,3.219,3.219,0,0,1,.875.238,3.79,3.79,0,0,1,.4.16c.124.083.238.124.358.2a6.68,6.68,0,0,0,.715.477.8.8,0,0,0,.44.128.828.828,0,0,0,.436-.16.963.963,0,0,1,.44-.156,1.476,1.476,0,0,0,.4-.041,2.553,2.553,0,0,0,.8-.2,5.093,5.093,0,0,0,1.513-.834,10.462,10.462,0,0,0,2.347-2.86,27.285,27.285,0,0,0,1.714-3.58c.518-1.27.912-2.581,1.471-3.933.078-.16.156-.358.238-.518.041-.041.078-.124.124-.16l.128-.124a.443.443,0,0,1,.27-.087.808.808,0,0,1,.321.124c.041.041.083.124.124.124.041.083.083.128.083.2l.078.238c.041.078.041.156.082.238a3.625,3.625,0,0,0,.238.435,17.581,17.581,0,0,0,1.192,1.751,86.773,86.773,0,0,1,5.1,7.2,22.839,22.839,0,0,1,3.264,8.15,13.088,13.088,0,0,1-.078,4.332,12.529,12.529,0,0,1-.637,2.067,3.562,3.562,0,0,1-.518.953,5.977,5.977,0,0,1-4.657,2.269,18.886,18.886,0,0,1-3.942-.041c-.637-.078-1.274-.124-1.879-.2a6.108,6.108,0,0,0-1.71.078c-1.155.16-2.31.4-3.378.555a18.364,18.364,0,0,1-6.092.083,10.019,10.019,0,0,1-2.429-.752,7.582,7.582,0,0,1-1.792-1.192,8.444,8.444,0,0,1-1.792-2.384,4.535,4.535,0,0,1-.321-.715c-.087-.22-.128-.3-.128-.3h0Zm.083-.041.124.238c.078.16.156.4.316.72a7.994,7.994,0,0,0,1.792,2.342,7.641,7.641,0,0,0,4.18,1.751,19.274,19.274,0,0,0,5.936-.358c1.073-.2,2.191-.435,3.378-.637a7.632,7.632,0,0,1,1.911-.078c.6.078,1.233.124,1.875.2a24.211,24.211,0,0,0,3.823.124,6.677,6.677,0,0,0,3.662-1.192,5.916,5.916,0,0,0,1.879-3.5,11.425,11.425,0,0,0,.156-4.213,20.679,20.679,0,0,0-3.342-7.99c-1.6-2.466-3.507-4.694-5.294-7-.44-.6-.88-1.155-1.274-1.788a5.348,5.348,0,0,1-.28-.518c-.041-.083-.083-.2-.128-.28l-.078-.28s-.018-.037-.037-.041h0l.041.041a.317.317,0,0,0,.2.083c.083,0,.128-.041.16-.041l-.041.041a4.68,4.68,0,0,0-.2.435c-.477,1.311-.876,2.663-1.357,3.974a20.011,20.011,0,0,1-1.751,3.74,10.287,10.287,0,0,1-2.626,3.1,6.316,6.316,0,0,1-1.792.917,7.548,7.548,0,0,1-1,.2c-.16,0-.321.041-.481.041a.835.835,0,0,1-.477-.2c-.16-.128-.28-.238-.44-.238a1.545,1.545,0,0,0-.435-.041,7.628,7.628,0,0,1-.917-.041.9.9,0,0,1-.435-.124,3.625,3.625,0,0,1-.362-.16,4.859,4.859,0,0,0-.715-.2,3.7,3.7,0,0,0-2.709.834,7.516,7.516,0,0,0-1.829,2.067,11.964,11.964,0,0,0-1.673,4.249,8.225,8.225,0,0,0-.078,2.938,2.5,2.5,0,0,0,.2.752.3.3,0,0,1,.124.128Z" transform="translate(-205.561 42.124)" fill="#9f795f" fill-rule="evenodd"/><path d="M235.925,65.1c3.507,8.865,14.178,3.937,17.524,4.3,3.342.316,9.273,1.27,10.946-2.824,4.254-10.139-8.6-20.792-9.433-24.015" transform="translate(-205.323 42.491)" fill="#b08769"/><path d="M237.1,85.99c-.678.637-.321.876-.6,1.623-.083.2-3.149,7.953-5.973,14.471-3.584,8.233-7.843,15.984-8.879,18.367-1.879,4.249-2.352,8.948-.28,10.02.6.321,4.18,2.388,6.051,1.513,1.714-.8,4.061-3.9,5.5-7.357,2.031-4.969,2.59-12.4,4.222-16.378.834-2.026,1.549-4.015,2.269-5.8a55.112,55.112,0,0,0,3.424-12.839c.518-2.15,16.96-37.771,16.96-45.045,0-2.466.793-4.891-5.18-4.891-7.8-1.068-16.836,45.682-17.515,46.319Z" transform="translate(-224.412 39.011)" fill="#f69e4d"/><path d="M235.333,42.438c-1.233,3.539-1.352,46.475,2.388,56.972,0,0,11.033,3.337,11.826,1.591s-3.465-12.445-5.574-55.817c.756-5.248-7.407-6.362-8.64-2.746Z" transform="translate(-206.96 39.823)" fill="#f69e4d"/><path d="M235.954,52.991s.083.124.238.394c.083.128.16.28.28.44s.2.358.358.555a6.062,6.062,0,0,0,.44.637,7.878,7.878,0,0,0,.518.715,3.908,3.908,0,0,0,1.43,1.192,7.963,7.963,0,0,0,.88.4,7.388,7.388,0,0,0,.876.316l.834.243c.28.037.518.124.752.156.477.083.875.16,1.155.2a4.393,4.393,0,0,1,.435.082v.041a1.971,1.971,0,0,1-.435.037H243.2a4.181,4.181,0,0,1-.678-.037,3.083,3.083,0,0,1-.793-.128c-.16-.037-.28-.078-.44-.124l-.44-.124c-.28-.124-.6-.238-.876-.358a5.761,5.761,0,0,1-.834-.518,2.946,2.946,0,0,1-.4-.316,3.4,3.4,0,0,0-.4-.321,8.936,8.936,0,0,1-.715-.637c-.238-.2-.44-.435-.637-.633a5.05,5.05,0,0,1-.44-.678,5.81,5.81,0,0,1-.275-.637,3.4,3.4,0,0,1-.16-.477c-.16-.275-.2-.435-.16-.435v.018Z" transform="translate(-205.311 54.995)" fill="#e77d32"/><path d="M237.671,70.675a4.461,4.461,0,0,1-.477-.358c-.16-.124-.321-.28-.518-.44-.083-.078-.2-.156-.321-.275l-.156-.16-.083-.078-.041-.041-.037-.041v-.037L236,69.117v-.078c0-.041.041-.128.041-.16l.124-.238c.078-.16.2-.316.28-.477.2-.321.477-.6.715-.917.28-.316.559-.633.8-.953.28-.316.518-.674.8-1.031.238-.358.518-.678.793-1.036.28-.316.559-.633.8-.953.28-.321.555-.6.793-.834a4.612,4.612,0,0,1,.839-.678c.041,0,.041-.037.078-.037h.238a.535.535,0,0,1,.28.078,1.4,1.4,0,0,1,.358.316,5.631,5.631,0,0,1,.4.6c.16.358.238.559.238.559h-.037s-.128-.2-.321-.477a2.43,2.43,0,0,0-.44-.481.84.84,0,0,0-.316-.2.249.249,0,0,0-.16-.041h-.124c-.2.16-.477.44-.72.678-.238.28-.518.555-.793.834s-.559.6-.839.912-.6.6-.876.917-.6.637-.834.953a7.962,7.962,0,0,0-.715,1,6.718,6.718,0,0,0-.6,1,3.407,3.407,0,0,1-.28.44.891.891,0,0,1-.124.2.143.143,0,0,1-.041.083,2.3,2.3,0,0,0,.28.316c.083.124.2.2.28.316.16.2.321.358.44.518.2.238.358.4.316.44h.009Z" transform="translate(-205.236 65.496)" fill="#e77d32"/><path d="M236.49,48.641a.248.248,0,0,1,.041-.124,2.4,2.4,0,0,1,.156-.28c.041-.041.083-.124.16-.16a.635.635,0,0,1,.238-.078,1.035,1.035,0,0,0,.44-.28,1.115,1.115,0,0,1,.435-.316,1.079,1.079,0,0,1,.481-.083,1.509,1.509,0,0,1,.2.041.286.286,0,0,1,.16.083.435.435,0,0,1,.124.078v.041a.355.355,0,0,0-.124.037.983.983,0,0,0-.28.082.221.221,0,0,1-.16.037.3.3,0,0,1-.2.041l-.481.083a.5.5,0,0,0-.394.238.908.908,0,0,1-.128.2c-.037.041-.124.082-.156.124a1.117,1.117,0,0,1-.518.238h0Z" transform="translate(-204.651 48.211)" fill="#e77d32"/><path d="M234.549,59.332a16.709,16.709,0,0,1,.678-2.026,9.125,9.125,0,0,1,.4-.953,10.878,10.878,0,0,1,.518-1.036c.2-.358.358-.715.555-1.114l.481-1.192c.156-.394.28-.793.435-1.192s.321-.793.477-1.151.321-.72.44-1.073.28-.678.4-.958c.238-.6.477-1.073.637-1.43a2.982,2.982,0,0,1,.28-.518h.037a4.822,4.822,0,0,1-.156.559c-.128.358-.238.871-.44,1.508-.078.321-.2.637-.316,1a11.231,11.231,0,0,1-.44,1.073c-.321.72-.678,1.513-1.073,2.269-.2.4-.4.752-.559,1.155a11.79,11.79,0,0,0-.435,1.151c-.119.4-.28.752-.4,1.073-.128.358-.28.678-.4.958a20.3,20.3,0,0,1-1.114,1.907v-.009Z" transform="translate(-206.973 47.457)" fill="#e77d32"/><path d="M240.033,123.735a4.844,4.844,0,0,0,.839.2c.238.078.518.124.834.2.16.041.321.041.481.082s.316.037.477.078c.156,0,.316.041.477.041s.321.041.477.041.321.037.44.037c.16,0,.28.041.4.041.28.027.559.069.834.124v.041a3.441,3.441,0,0,1-.834.16,1.453,1.453,0,0,1-.4,0h-.477a2.12,2.12,0,0,1-.481-.083c-.156-.041-.316-.078-.518-.124l-.477-.124-.477-.128a4.183,4.183,0,0,1-.839-.275,4.879,4.879,0,0,1-.747-.321l-.009.014Z" transform="translate(-200.393 139.894)" fill="#41403a"/><path d="M253.57,25.154s2.668,11.171.72,13.8c4.854-2.75,1.948-15.31.875-16.662-1.155-1.311-1.6,2.865-1.6,2.865Z" transform="translate(-184.148 17.87)" fill="#2d2d2d"/><path d="M258.666,23.712c-1.756-.2-4.781,1.948-5.615,2.544l-.041,5.766c.559.16,6.532,2.622,7.682-2.5C260.935,28.561,262.086,24.152,258.666,23.712Z" transform="translate(-184.821 19.867)" fill="#e89176"/><path d="M258.353,26.365a2.164,2.164,0,0,0-2.109-1.228c-1.348.156-2.347,2.15-2.347,2.15a4.654,4.654,0,0,1,3.223,1.985c-.124-2.223-1.471-2.384-1.471-2.384s.4-.747.715-.715a5.493,5.493,0,0,1,1.989.193Z" transform="translate(-183.756 21.586)" fill="#a96d4d"/><path d="M240.1,34.26s1,13.793-1.554,18.285c0,0,9.278,2.347,8.558.6-.674-1.788.358-17.295.358-17.295Z" transform="translate(-202.173 32.54)" fill="#edad8a"/><path d="M259.72,68.941c3.983,0,19.669-3.1,22.777-25.284C285.875,19.8,268.681,8.87,258.408,8.87c-17.2,0-34.039,15.145-25.839,37.647,7.8,21.548,23.13,22.424,27.15,22.424Z" transform="translate(-211.915 2.072)" fill="#fcc5a7"/><path d="M246.42,21.411c.715,0,.518,2.384,2.5,4.73,2.5,1.71,3.1,5.207,1,6.28-7.838,2.782-4.217-11.01-3.5-11.01Z" transform="translate(-194.476 17.121)" fill="#e89176"/><path d="M239.31,28.422a10.515,10.515,0,0,0,.793,2.544,10.268,10.268,0,0,0,8.76,6.2,11.712,11.712,0,0,0,10-4.332Z" transform="translate(-201.26 25.534)" fill="#f2e7dc"/><path d="M233.509,44.325c5.533-.358,8.32,5.01,8.32,5.01s4.3,7.554,11.982,8.269c7.687.674,9.319-12.725,8.879-14.554,0-2.425-4.139-5.4-6.33-5.487a2.924,2.924,0,0,0-2.787,2.186,3.5,3.5,0,0,1-.4,2.388c-1.311,1.591-6.61.715-6.61.715s1.155-2.943-1.788-3.539c-3.465-.715-6.454,1.393-8.045,1.549-3.383.4-4.341,3.86-3.222,3.461Z" transform="translate(-208.756 36.505)" fill="#3f51ad"/><path d="M239.727,41.341a1.9,1.9,0,0,1,.44.2c.28.124.674.316,1.114.555a7.345,7.345,0,0,1,.72.4c.238.16.477.358.747.518a2.831,2.831,0,0,0,1.879.518,2.922,2.922,0,0,0,.875-.238,1.646,1.646,0,0,0,.637-.481,1.406,1.406,0,0,0,.2-.316l.083-.16c.041-.078.041-.124.078-.2.041-.041.041-.124.083-.16.037-.078.037-.124.078-.2l.124-.358a4.313,4.313,0,0,0,.16-.637c.041-.2.083-.358.124-.518.083-.275.128-.477.128-.477h.078l.128.477a2.57,2.57,0,0,1,.078.559,2.27,2.27,0,0,1,0,.747c0,.128-.041.28-.041.44l-.124.477c-.041.078-.041.16-.083.238l-.124.238a1.738,1.738,0,0,1-.316.435,2.4,2.4,0,0,1-1.036.6,2.727,2.727,0,0,1-1.155,0c-.358-.078-.678-.2-1.036-.275a8.263,8.263,0,0,0-1-.28,6.409,6.409,0,0,1-.917-.28,3.243,3.243,0,0,1-.715-.435c-.2-.16-.4-.321-.559-.44l-.4-.394c-.2-.238-.316-.4-.316-.4l.069-.151Z" transform="translate(-200.843 39.173)" fill="#2b2862"/><path d="M240.035,40.421a3.039,3.039,0,0,1,.28,1,2.069,2.069,0,0,1,0,.477,2.889,2.889,0,0,1-.083.559c-.037.2-.078.394-.124.555l-.124.6a1.98,1.98,0,0,1-.238.6,2.651,2.651,0,0,1-.4.477,1.7,1.7,0,0,1-.481.321,2.5,2.5,0,0,1-.518.156,1.734,1.734,0,0,1-.435.041.766.766,0,0,1-.321-.041,1.208,1.208,0,0,1-.28-.078v-.041a.983.983,0,0,1,.28-.041,3.836,3.836,0,0,0,.678-.2c.124-.041.28-.124.4-.16a2.153,2.153,0,0,0,.4-.28,2.893,2.893,0,0,0,.357-.353,2.078,2.078,0,0,0,.316-.481,2.362,2.362,0,0,0,.2-.555,2.51,2.51,0,0,0,.037-.555c0-.2-.037-.358-.037-.518V40.705c.037-.16.037-.28.078-.28h.014Z" transform="translate(-203.658 39.933)" fill="#2b2862"/><path d="M241.145,41.631a6.693,6.693,0,0,1,1.114,1.192,3.585,3.585,0,0,1,.44.637,4.734,4.734,0,0,1,.394.793,6.671,6.671,0,0,1,.321.875l.128.477a.811.811,0,0,1-.083.518,2.338,2.338,0,0,1-.555.834c-.243.238-.481.435-.72.637a8.28,8.28,0,0,1-1.393.912c-.44.238-.8.4-1.077.518a2.916,2.916,0,0,1-.435.16v-.041l.358-.238c.238-.16.555-.4.958-.674s.834-.6,1.352-.958a8.287,8.287,0,0,0,.715-.555,3.145,3.145,0,0,0,.6-.678.742.742,0,0,0,.124-.394l-.041-.238c0-.083-.041-.16-.041-.238a3.238,3.238,0,0,0-.394-.834c-.16-.238-.357-.481-.518-.72s-.321-.435-.44-.633c-.28-.4-.477-.72-.637-.958a3.22,3.22,0,0,0-.161-.394h-.009Z" transform="translate(-201.298 41.386)" fill="#2b2862"/><path d="M241.844,41.634a5.889,5.889,0,0,0,.6.078c.4.087.917.165,1.554.238a7.824,7.824,0,0,0,1.036.083,2.827,2.827,0,0,0,.555-.041l.124-.041.083-.037h.078a.133.133,0,0,1,.128.037c.041,0,.078.041.124.082.078.041.078.078.124.156a4.532,4.532,0,0,1,.28,1.274c.041.435.083.876.083,1.311s0,.876-.041,1.316a6.741,6.741,0,0,1-.238,1.27,5.713,5.713,0,0,1-.357,1.155c-.147.325-.3.642-.481.953a3.645,3.645,0,0,1-.555.715,1.793,1.793,0,0,1-.28.28,1.092,1.092,0,0,1-.238.2,1.356,1.356,0,0,1-.4.238l-.16.083-.037-.041.124-.124a2.357,2.357,0,0,0,.321-.321c.124-.124.275-.316.435-.518a3.4,3.4,0,0,0,.44-.747,5.973,5.973,0,0,0,.4-.953c.124-.358.238-.72.357-1.114s.206-.82.28-1.233c.078-.44.124-.834.2-1.274a6.968,6.968,0,0,0,0-1.311,2.445,2.445,0,0,0-.321-1.155c-.037-.078-.124-.078-.124-.124l-.078.041-.16.078a3.325,3.325,0,0,1-.6.083,8.457,8.457,0,0,1-1.077-.083,4.4,4.4,0,0,1-.875-.2c-.28-.078-.477-.124-.678-.2-.4-.041-.6-.128-.6-.16h-.023Z" transform="translate(-198.22 41.383)" fill="#2b2862"/><path d="M243.111,41.5a2.393,2.393,0,0,0,.435.243,2.08,2.08,0,0,0,.518.124,1.311,1.311,0,0,0,.678-.041c.082,0,.124-.041.2-.041.078-.037.124-.037.2-.078.124-.041.28-.124.4-.16a4.56,4.56,0,0,0,.834-.477c.28-.2.518-.435.8-.674a1.98,1.98,0,0,1,.477-.321.569.569,0,0,1,.6.16,2.231,2.231,0,0,1,.481,1.031,10.769,10.769,0,0,1,.156,1.073,17.161,17.161,0,0,1,.128,1.875c.037.559.078.995.124,1.311a1.648,1.648,0,0,0,.124.358.471.471,0,0,0,.082.128l-.041.037-.083-.078a2.813,2.813,0,0,0-.2-.316,6.487,6.487,0,0,1-.321-1.316c-.078-.555-.156-1.192-.2-1.875a9.758,9.758,0,0,0-.124-1.031,2.319,2.319,0,0,0-.28-.953.374.374,0,0,0-.4-.16,1.639,1.639,0,0,0-.44.238c-.275.238-.477.518-.747.752a3.943,3.943,0,0,1-.8.633,2.618,2.618,0,0,1-.876.321c-.16.041-.28,0-.44.041a.886.886,0,0,1-.358-.082,1.754,1.754,0,0,1-.555-.238c-.28-.28-.4-.435-.358-.477h-.018Z" transform="translate(-196.7 39.486)" fill="#2b2862"/><path d="M227,25.442c-1.316,0,1.875-15.425,6.408-18.725s14.136-6.161,18.4-3.1c4.254,3.1,1.073,9.782,0,11.927-.4.793-4.822.078-8.8,1.989-2.668,1.27-4.62,3.337-7.6,4.611-4.02,1.669-6.77,3.337-8.4,3.3Z" transform="translate(-216.387 -5.796)" fill="#2d2d2d"/><path d="M283.635,25.969c2.232-1.389,4.18-6.6,2.191-12.958-1.989-6.4-28.947-7.715-40.53-2.9s-15.608,16.3-16.089,21.548c-.435,5.244,4.859,16.974,4.859,16.974s3.983-5.528,5.175-5.051c1.155.477,2.072,6.124-.674,12.248,6.17-2.906,2.787-11.767,2.626-13.6-.16-1.792,5.056-11.968,5.056-11.968a14.815,14.815,0,0,1-.917,6.248c23.07,3.383,27.617-8.824,27.347-8.934-.023,0-.073.064-.151.225.6,2.668.238,4.135-.752,7,4.46-3.181,3.662-7.6,5.1-8.43,4.052-1.513,4.533.949,6.761-.4Z" transform="translate(-213.415 0.077)" fill="#2d2d2d"/><path d="M233.289,23.452c2.471,0,5.812,1.192,6.77,4.451a3,3,0,0,1-1.2,3.3c-.518.358-1.627.358-2.347.715a5.268,5.268,0,0,1-6.848-1.508c-1.274-1.989.078-6.958,3.621-6.958Z" transform="translate(-213.395 19.571)" fill="#e89176"/><path d="M230.957,25.072c.275-.358.876-.6,2.906-.124,1.513.358,3.144,2.145,2.906,2.824-.083.16-2.15-.752-3.067-.44a17.232,17.232,0,0,0-2.984,2.388c-.559-1.591,2.228-3.259,3.222-3.374-.834-1.114-3.186-.953-2.984-1.274Z" transform="translate(-211.659 21.05)" fill="#a96d4d"/><path d="M238.512,11.176a2.522,2.522,0,0,1,.156.477,7.531,7.531,0,0,1,.243,1.274,3.293,3.293,0,0,1,.037.876,4.624,4.624,0,0,1-.124,1,9.671,9.671,0,0,0-.082,1.031,10.423,10.423,0,0,0,.082,1.073,9.4,9.4,0,0,1,.078,1.073v1.036a3.875,3.875,0,0,1-.124,1,3.225,3.225,0,0,1-.238.876,3.093,3.093,0,0,1-.28.715,1.7,1.7,0,0,1-.161.28.823.823,0,0,1-.156.238,3.765,3.765,0,0,1-.321.394l-.069-.05s.041-.2.124-.477c.041-.156.041-.358.083-.555a3.456,3.456,0,0,0,.078-.715c.041-.238.041-.559.083-.834s.078-.6.124-.958c.041-.316.083-.674.124-1,.041-.358.128-.715.16-1.073a4.69,4.69,0,0,0,.124-1.073,4.3,4.3,0,0,0-.124-1.036,8.273,8.273,0,0,1-.16-.953,6.967,6.967,0,0,1-.037-.876,11.434,11.434,0,0,1,.078-1.311c.041-.316.083-.518.083-.518l.22.087Z" transform="translate(-203.368 4.735)" fill="#1e1e1e"/><path d="M244.974,10.007a1.065,1.065,0,0,0,.16.124,2.277,2.277,0,0,1,.4.44l.238.358a1.5,1.5,0,0,1,.2.435,4.42,4.42,0,0,1,.321,1.155,3.7,3.7,0,0,1,.078.674,4.713,4.713,0,0,1,.041.72c0,.477-.124,1-.16,1.549a11.666,11.666,0,0,0-.28,1.591c-.124.555-.156,1.114-.238,1.669s-.156,1.114-.28,1.669-.28,1.073-.435,1.591a11.894,11.894,0,0,1-.477,1.43c-.16.44-.362.876-.518,1.274-.362.752-.72,1.393-.958,1.788-.238.44-.4.678-.4.678l-.078-.041a4.591,4.591,0,0,1,.2-.747,8.044,8.044,0,0,0,.238-.839c.124-.316.2-.674.358-1.073.128-.394.238-.834.4-1.27.083-.238.16-.477.238-.678l.238-.715c.16-.477.358-1,.518-1.513s.358-1.031.518-1.591a11.049,11.049,0,0,0,.4-1.591,7.1,7.1,0,0,0,.082-1.591c-.041-.513-.041-1.031-.083-1.467,0-.44-.032-.88-.078-1.316a7.776,7.776,0,0,0-.16-1.073c-.083-.316-.16-.6-.238-.834s-.16-.4-.2-.518a.263.263,0,0,0-.124-.156l.087-.133Z" transform="translate(-197.33 3.437)" fill="#1e1e1e"/><path d="M249.843,10.026a.284.284,0,0,1,.124.041.962.962,0,0,1,.321.2,2.1,2.1,0,0,1,.477.4,2,2,0,0,1,.477.633c.16.243.28.559.44.839a7.971,7.971,0,0,1,.28,1.031,2.529,2.529,0,0,1,.078.555c0,.2.041.358.041.559v.275l-.041.28-.037.6a9.153,9.153,0,0,1-.2,1.114l-.041.28-.078.28c-.041.156-.124.358-.16.518s-.124.358-.156.513c-.083.16-.128.321-.2.481-.105.284-.225.559-.358.834-.124.238-.238.477-.358.674a5.409,5.409,0,0,1-.316.518,4.688,4.688,0,0,1-.28.435s.037-.2.124-.513a3.909,3.909,0,0,1,.16-.559l.238-.715c.078-.28.156-.555.238-.876l.124-.477.124-.477c.083-.321.16-.678.243-1.036.037-.353.124-.715.156-1.073l.041-.518.041-.275v-.8c0-.156-.041-.316-.041-.518a3.991,3.991,0,0,0-.16-.953,6.015,6.015,0,0,0-.6-1.43c-.124-.2-.238-.358-.321-.477-.124-.124-.2-.238-.238-.28-.142-.037-.142-.078-.142-.078Z" transform="translate(-188.621 3.46)" fill="#1e1e1e"/><path d="M233.9,4.25a.1.1,0,0,0,.078-.037c.083,0,.16-.041.28-.041a2.074,2.074,0,0,1,.477.041c.083.037.2.037.28.078a2.1,2.1,0,0,1,.321.16c.078.078.2.124.28.2a1.014,1.014,0,0,1,.28.28c.2.2.316.4.518.637a4.465,4.465,0,0,1,.358.747c.078.28.2.559.28.834a6.516,6.516,0,0,1,.156.834c.041.28.041.559.083.834s0,.518.041.752v.678c-.046.463-.11.931-.2,1.389a12.031,12.031,0,0,1-.28-1.389c-.037-.2-.078-.44-.124-.678l-.124-.715c-.041-.238-.128-.518-.16-.752a6.057,6.057,0,0,0-.2-.793A4.357,4.357,0,0,0,236,6.555c-.078-.238-.2-.477-.275-.715-.041-.124-.128-.2-.16-.316a1.531,1.531,0,0,0-.16-.28,2.1,2.1,0,0,0-.4-.477,3.054,3.054,0,0,0-.436-.321,1.569,1.569,0,0,0-.4-.156,1.33,1.33,0,0,0-.27-.041Z" transform="translate(-207.753 -3.567)" fill="#1e1e1e"/><path d="M246.475,21.573c.678,0,.518,2.347,2.466,4.611,2.429,1.669,3.03,5.088.958,6.124C242.253,35.008,245.76,21.573,246.475,21.573Z" transform="translate(-194.371 17.316)" fill="#e89176"/><path d="M252.067,21.865c-1.435-.637-2.429,1.073-2.269,2.466.124,1.393-.238,2.384,1.471,2.9C252.942,27.75,253.5,22.5,252.067,21.865Z" transform="translate(-188.696 17.501)" fill="#a16949"/><path d="M239.471,27.052c.752,1.155,2.31-.238,2.709-1.623s.28-3.3-.559-3.7C240.268,21.052,237.8,24.508,239.471,27.052Z" transform="translate(-201.741 17.401)" fill="#a16949"/></g></g></g></svg>