<svg xmlns="http://www.w3.org/2000/svg" xmlns:xlink="http://www.w3.org/1999/xlink" width="88" height="88" viewBox="0 0 88 88"><defs><clipPath id="a"><circle cx="44" cy="44" r="44" transform="translate(0)" fill="#c8c8c8"/></clipPath><clipPath id="b"><rect width="88" height="88" transform="translate(0 0)" fill="none"/></clipPath></defs><g transform="translate(0)"><circle cx="44" cy="44" r="44" transform="translate(0)" fill="#37af79"/><g clip-path="url(#a)"><g transform="translate(0 0)" clip-path="url(#b)"><path d="M397,163.862c-16.1-3.772-12.367-37.949-12.367-37.949s-4.735-2.223-3.979-3.273-.715,3.4-.715,3.4-4.575,34.681,12.326,44.367c11.276,5.326,17.689-6.289,17.689-6.289s8.471-10.607,10.859-19l-6.669-2.64c-2.975,9.979-8.379,20.714-17.143,21.384Z" transform="translate(-393.262 -35.667)" fill="#edbc9a"/><path d="M405.7,120.587s-5.909-.88-7.334,7.045c.293.293-.545,8.43-3.186,17.153l6.665,2.64a14.979,14.979,0,0,0,.628-3.9c1.215-4.281,3.227-22.942,3.227-22.942Z" transform="translate(-374.295 -37.973)" fill="#48677c"/><path d="M413.744,120.267,428.2,133.56l-5.115-1.847L411.6,124.08Z" transform="translate(-354.59 -38.322)" fill="#343432"/><path d="M406,117.056s1.215,8.26-2.306,14.549l11.359,1.847s-2.723-11.409-2.012-17.111C413.716,110.6,406,117.056,406,117.056Z" transform="translate(-364.074 -45.888)" fill="#edae85"/><path d="M399.222,102.75a4.209,4.209,0,0,1,2.9,1.343l-1.384,8.595c-.674.128-1.426.293-2.182.5-3.69,1.508-4.611-1.889-4.9-4.277a5.635,5.635,0,0,1,5.083-6.138,4.332,4.332,0,0,1,.49-.028Z" transform="translate(-376.161 -59.342)" fill="#e89271"/><path d="M424.391,102.025a11.047,11.047,0,0,0-6.624,2.512l-1.591,6.88a44.673,44.673,0,0,1,5.909.335,5.941,5.941,0,0,0,6.582-4.653c.545-2.851.041-5.074-4.277-5.074Z" transform="translate(-349.097 -60.212)" fill="#e89271"/><path d="M394.872,105.371a2.021,2.021,0,0,1,2.1-.926c1.256.252,1.971,2.223,1.971,2.223a4.434,4.434,0,0,0-3.186,1.508c.335-2.054,1.6-2.054,1.6-2.054s-.293-.752-.591-.752a5.446,5.446,0,0,0-1.888,0Z" transform="translate(-374.662 -57.351)" fill="#a96d4d"/><path d="M420.229,103.555c1.467-.206,3.649-.963,4.235,1.261-1.678-.674-4.611-.463-5.074.587,1.215-.211,2.306-.293,2.439,2.553a15.158,15.158,0,0,1-2.6-2.177q-.545-.17-1.508.963c-.257-.963,1.082-2.975,2.507-3.186Z" transform="translate(-347.282 -58.725)" fill="#a96d4d"/><path d="M424.265,85.274c-20.453-2.264-23.85,11.24-25.234,16.566s-.211,13.8-.839,19.371-2.388,8.893-1.971,12.922c.417,3.983,1.678,18.784,19.912,19.917,15.97.839,22.089-8.471,25.821-23.272,7-28.1,2.814-43.239-17.689-45.5Z" transform="translate(-373.119 -80.617)" fill="#edbc9a"/><path d="M420.621,93.319c-13.5.587-19.577,4.148-22.3,7.5a93.355,93.355,0,0,1-.128,10.442c-.628,5.574-2.388,8.893-1.971,12.917.417,3.983,1.678,18.784,19.912,19.917,15.97.839,22.094-8.471,25.821-23.272a101.863,101.863,0,0,0,3.062-18.491c-4.02-4.868-11.313-9.562-24.4-9.016Z" transform="translate(-373.119 -70.711)" fill="#edbc9a"/><path d="M401.161,99.1s3.86,9.644,12.069,10.561.5-7.293.5-7.293,4.107,4.148,8.384,2.851c3.479-1.091-1.256-5.537-1.256-5.537s5.95,3.525,5.615.335a12.591,12.591,0,0,0,4.025,1.765c2.681,10.061,7.715,11.657,7.715,11.657s1.636-8.054,0-14.343c-2.553-9.727-26.109-8.975-26.109-8.975L401.161,99.1Z" transform="translate(-367.117 -74.518)" fill="#723101"/><path d="M419.463,103.222c13.078-.545,20.375,4.148,24.4,9.016.839-16.273-5.322-25.289-20.746-26.962-20.458-2.269-23.854,11.235-25.238,16.561a34.791,34.791,0,0,0-.711,8.934c2.727-3.355,8.806-6.963,22.3-7.55Z" transform="translate(-371.966 -80.615)" fill="#ef4522"/><path d="M392.713,91.309c7.843-10.066,35.341-12.876,49.088,14.8-33.407-5.785-36.386,7.174-36.386,7.174C397.2,116.006,384.875,101.416,392.713,91.309Z" transform="translate(-380.259 -81.619)" fill="#c6391c"/><path d="M410.013,99.815c-1.091,0-1.6,2.512-6.459,4.611-3.9,2.095-3.814,6.963-.5,8.26,12.239,3.4,8.054-12.871,6.958-12.871Z" transform="translate(-367.791 -62.864)" fill="#e87a69"/><path d="M411.9,98.422c-1.339-.463-2.095,1.554-1.8,3.016.252,1.513.041,2.6,1.6,2.9,1.549.248,1.549-5.5.206-5.913Z" transform="translate(-356.472 -64.616)" fill="#a16949"/><path d="M400.42,99.266c-1.086-.335-1.673,1.261-1.467,2.439.211,1.215.5,2.306,1.3,2.306C401.553,104.047,401.511,99.642,400.42,99.266Z" transform="translate(-369.814 -63.577)" fill="#a16949"/><path d="M399.96,113.921l23.556-7.8c.756,2.177-1.76,7.8-8.255,10.4C408.807,119.077,400.923,115.892,399.96,113.921Z" transform="translate(-368.557 -55.294)" fill="#f1dbcb"/><path d="M410.483,120.953c-5.157.587-3.855,10.9-5.2,17.57s-10.355,26.751-15.594,56.862L431.4,189.1s6.083-37.45,11.574-46.924c0,0,2.26-21.306-2.979-21.306l-9.346-.5c-.128,2.269-7.082,4.992-8.847,0a95.259,95.259,0,0,0-11.317.591Z" transform="translate(-380.881 -38.211)" fill="#48677c"/><path d="M405.3,120.588l4.061-.417-13.495,25.243s1.343-7.462,1.426-9.351C397.666,135.352,405.3,120.588,405.3,120.588Z" transform="translate(-373.472 -38.437)" fill="#343432"/><path d="M423.709,197.958s-23.139-38.541-21.127-45.077l2.553-8.26,14.169-24.45,5.409.211-14.508,26.164-1.636,6.294c-1.971,5.239,21.507,43.821,21.507,43.821l-6.367,1.3Z" transform="translate(-365.559 -38.437)" fill="#343432"/><path d="M418.065,121.958c-6.165-5.326-7.339,10.864-7.339,10.864l6.917,10.231a46.178,46.178,0,0,1,2.851,5.07l7.339-4.57c-.252-1.045-3.777-16.479-9.768-21.594Z" transform="translate(-355.638 -37.583)" fill="#48677c"/></g></g></g></svg>