<svg xmlns="http://www.w3.org/2000/svg" xmlns:xlink="http://www.w3.org/1999/xlink" width="88" height="88" viewBox="0 0 88 88"><defs><clipPath id="a"><circle cx="44" cy="44" r="44" transform="translate(0.4)" fill="#c8c8c8"/></clipPath><clipPath id="b"><rect width="88" height="88" transform="translate(0.4 -0.003)" fill="none"/></clipPath></defs><g transform="translate(-0.4)"><circle cx="44" cy="44" r="44" transform="translate(0.4)" fill="#fdb250"/><g clip-path="url(#a)"><g transform="translate(0 0.002)" clip-path="url(#b)"><path d="M432.45,70.4c0-.82.018-1.655.041-2.5,1.453,6.275,2.173,12.523,3.034,19C433.838,81.666,432.431,76.376,432.45,70.4Zm-7.8,4.9c2.966,11.991,7.628,25.229,14.5,35.254.215.312.784.156.628-.28-4.556-12.605-10.286-24.725-12.046-38.3-.88-6.821-1.178-13.7-1.517-20.554-.018-.321-.032-.642-.041-.967.545,1.173,1.086,2.347,1.613,3.534-.715,16.919,1.513,34.03,11.7,47.772.183.252.518-.014.454-.284a127.245,127.245,0,0,0-3.837-12.78.676.676,0,0,0,.857-.481,33.152,33.152,0,0,0,.747-6.9,92.132,92.132,0,0,0,3.7,12.17c.2.513.986.275.944-.261-.4-5.221-1.018-10.557-1.783-15.9,1.939,2.682,3.96,5.606,4.685,8.879.092.408.628.248.555-.156a34.15,34.15,0,0,0-3.438-9.654c-1.022-2.049-1.857-4.469-2.938-6.619.39-10.4-3.135-22.658-6.532-31.867-3.74-10.116-10.442-22.493-19.137-28.319-.967-.651-1.98.578-1.467,1.623a65.985,65.985,0,0,0,4.763,8.022,1.513,1.513,0,0,0-.124,1.5c2.544,5.9,6.5,10.9,9.048,16.855,1.283,3.007,2.429,6.092,3.465,9.213a.863.863,0,0,0-.188-.087,36.1,36.1,0,0,0-4.1-6.834,14.64,14.64,0,0,0-1.32-3.282,1.112,1.112,0,0,0-1.948-.119l-.078-.069c-.871-.72-1.609.573-1.284,1.416.211.545.449,1.073.669,1.614-.7,5.276.518,11.4.875,16.557a112.986,112.986,0,0,0,2.567,19.3Z" transform="translate(-363.234 -2.572)" fill="#2c3f7e" fill-rule="evenodd"/><path d="M395.286,28.266a.416.416,0,0,1,.811-.1c.2.7.394,1.384.591,2.081,4.153-3.887,16.969,4.8,20.756,6.775,8.1,4.222,20.192-4.524,25.587,4.474.046-.3,2.8,9.3,2.865,9,.16-.733-.362,1.889-.041,2.627,2,4.556,3.14,9.438,5.3,13.949,1.151,2.406,5.079,4.983,7.747,7.238,2.585,2.186,6.646,6.614,8.054,9.287,1.1,2.113-4.442-1.242-6.161-1.366a92.73,92.73,0,0,0-19.27.816c-7.655.99-15.64-2.072-22.323-6.257a40.516,40.516,0,0,1-5.537-4.217,16.11,16.11,0,0,1,1.471,6.527c-.009.408-.518.39-.656.083-1.522-3.342-2.622-6.637-4.5-9.837-.371-.628-.756-1.247-1.146-1.861a62.7,62.7,0,0,1-13.55-39.219Z" transform="translate(-383.496 19.589)" fill="#2c3f7e"/><path d="M439.38,63.75l1.664-3.282s-1.545-8.613-1.925-11.505,4.891-19.747,4.891-19.747c1.242,1.114.669,4.263.669,4.263l3.5-9.965c2.021.669.591,4.3.591,4.3l2.264-3.369c1.765,1.43-1.98,7.916-1.98,7.916l2.851-3.076c1.526,3.012-7.527,16.63-7.527,16.63s2.764,8.21,3.126,10.185c1.1-1.206,2.374-6.77,6.949-4.52,0,0-4.708,5.895-9.122,10.868L443.258,66.7,439.38,63.75Z" transform="translate(-330.914 14.354)" fill="#da8259"/><path d="M425.7,23.411c-1.792.2-4.245,3.03-4.914,3.818l1.3,5.7c.582.032,7.018,1.077,6.981-4.245C429.055,27.646,429.165,23.026,425.7,23.411Z" transform="translate(-352.89 14.204)" fill="#d27259"/><path d="M426.114,25.713a2.2,2.2,0,0,0-2.374-.7c-1.3.458-1.834,2.659-1.834,2.659a4.881,4.881,0,0,1,3.644,1.187c-.619-2.15-2-2.017-2-2.017s.215-.834.55-.876a6.086,6.086,0,0,1,2.012-.252Z" transform="translate(-351.545 16.027)" fill="#a96d4d"/><path d="M408.186,36.077s2.691,13.751.7,18.569c0,0,9.589,1.224,8.673-.481s-1.8-17.418-1.8-17.418l-7.568-.669Z" transform="translate(-368.009 29.431)" fill="#e8876a"/><path d="M431.34,70.306c4.011-.5,19.348-5.556,19.692-28.2.454-24.381-18.152-33.219-28.447-31.945C405.318,12.3,390.306,29.588,401.33,51.2c10.529,20.636,26,19.61,30.01,19.11Z" transform="translate(-380.758 -1.815)" fill="#da8259"/><path d="M400.489,25.9c2.461-.307,5.959.49,7.334,3.612a3.078,3.078,0,0,1-.775,3.47c-.49.431-1.6.559-2.283,1-2.347,1.508-5.336,1.4-7.045-.66-1.517-1.834-.77-6.99,2.769-7.426Z" transform="translate(-381.461 17.151)" fill="#d27259"/><path d="M398.481,27.626c.225-.376.82-.692,2.911-.477,1.568.16,3.424,1.765,3.264,2.489-.041.179-2.242-.5-3.122-.073a16.888,16.888,0,0,0-2.714,2.769c-.775-1.531,1.847-3.539,2.8-3.782-.944-1.041-3.3-.587-3.14-.926Z" transform="translate(-379.665 18.634)" fill="#a96d4d"/><path d="M413.383,22.376c.706-.087.811,2.338,3.122,4.455,2.723,1.412,3.763,4.85,1.779,6.179-7.527,3.772-5.6-10.547-4.9-10.634Z" transform="translate(-362.668 12.988)" fill="#c26248"/><path d="M418.859,21.922c-1.366-.362-2.04,1.031-1.737,2.109s.1,1.875,1.673,2.118S420.221,22.288,418.859,21.922Z" transform="translate(-357.372 12.374)" fill="#814a30"/><path d="M408.211,27.962c.935.83,1.976-.733,2.012-2.049s-.5-2.957-1.334-3.117C407.518,22.525,406.166,26.142,408.211,27.962Z" transform="translate(-369.234 13.476)" fill="#814a30"/><path d="M427.9,29.77l-20.59.6C410.584,33.143,420.563,37.246,427.9,29.77Z" transform="translate(-369.059 21.862)" fill="#efddc9"/><path d="M408.064,30.061l-1.357.014a10.163,10.163,0,0,0,10.158,8.75c9.571.4,12.271-8.971,12.271-8.971h-.477C421.178,37.2,411.282,32.9,408.064,30.061Z" transform="translate(-369.784 21.965)" fill="#7a300c"/><path d="M440.932,40.616c-.179.321-.871,1.467-1.93,3.172,1.4.394,2.64,1.444,4.268,3.323.866-1.682,1.426-2.764,1.549-3.016C445.74,42.307,441.775,39.1,440.932,40.616Z" transform="translate(-331.03 34.403)" fill="#9ac571"/><path d="M413.91,103.346c-5.111-9.03-10.52-53.667-9.7-57.431s19.28-4.194,22.781-.362c2.883,3.154,4.616,18.312,6.821,33.531C434.72,85.332,442,98.868,442,98.868,433.652,105.4,413.91,103.346,413.91,103.346Z" transform="translate(-372.88 37.592)" fill="#8ca95b"/><path d="M414.623,47.689c3.539.092,31.683,31.949,31.683,31.949s24.381-36.923,25.541-39.022c.844-1.517,4.808,1.691,3.887,3.484S451.8,90.91,448.484,90.946s-33.026-27.434-33.026-27.434S411.08,47.593,414.623,47.689Z" transform="translate(-361.946 34.403)" fill="#8ca95b"/><path d="M407.046,69.51c4.593,8.457,14.7,2.2,18.083,2.122s9.479.128,10.639-4.18c3.007-10.717-11.2-19.8-12.422-22.956-1.068-2.746-5.821,13.055-10.442,12.958-5.546-.115-8.049,8.022-5.858,12.055Z" transform="translate(-370.325 39.149)" fill="#8ca95b"/><path d="M411.49,42.718c.28.348,1.714,3.662,4.634,3.42s2.75-3.277,2.75-3.277,1.471.715,1.921.908.7,5.45.33,5.652-4.524-1.907-4.524-1.907-2.526,3.2-3.007,3.264-6.812-7.476-6.812-7.476S411.205,42.369,411.49,42.718Z" transform="translate(-369.694 37.306)" fill="#9ac571"/><path d="M406.643,69.331a9.084,9.084,0,0,0,2.411,2.773,3.045,3.045,0,0,0,.376.261c.133.082.257.17.39.243a8.017,8.017,0,0,0,.83.39,7.854,7.854,0,0,0,1.765.477,12,12,0,0,0,3.667-.046,28.786,28.786,0,0,0,3.612-.825c1.2-.33,2.379-.72,3.6-1.013.151-.037.3-.073.458-.1s.307-.06.468-.078.316-.028.477-.037h.463c.623,0,1.247-.014,1.866-.032a18.475,18.475,0,0,0,3.69-.426,8.486,8.486,0,0,0,1.756-.582,5.534,5.534,0,0,0,1.522-1.008A4.125,4.125,0,0,0,435,67.841l.083-.211.069-.22a3.512,3.512,0,0,0,.11-.445l.1-.449a3.677,3.677,0,0,0,.083-.449,11.288,11.288,0,0,0-.023-3.662,14.216,14.216,0,0,0-1.1-3.5,22.845,22.845,0,0,0-1.806-3.218,45.189,45.189,0,0,0-4.726-5.721L425.2,47.274c-.431-.454-.853-.912-1.256-1.389a6.232,6.232,0,0,1-1.04-1.554l.037-.014a6.213,6.213,0,0,0,1.1,1.485c.417.454.866.889,1.3,1.329.889.871,1.8,1.724,2.668,2.613a39.986,39.986,0,0,1,4.841,5.711,20.967,20.967,0,0,1,1.852,3.277,14.4,14.4,0,0,1,1.086,3.612,11.214,11.214,0,0,1-.032,3.772,3.241,3.241,0,0,1-.092.468l-.114.458a3.381,3.381,0,0,1-.128.454l-.073.229-.1.22a4.4,4.4,0,0,1-1.118,1.545,5.808,5.808,0,0,1-1.6,1,10.293,10.293,0,0,1-1.792.564,22.576,22.576,0,0,1-3.717.422c-.623.032-1.247.041-1.866.055l-.468.018c-.151.018-.3.018-.454.05s-.3.055-.449.092-.3.069-.449.11c-1.187.33-2.365.761-3.557,1.118a24.99,24.99,0,0,1-3.653.853,12.219,12.219,0,0,1-3.768,0l-.234-.037-.234-.055c-.156-.037-.307-.069-.463-.119a7.656,7.656,0,0,1-.889-.33,7.262,7.262,0,0,1-.843-.426c-.138-.078-.261-.174-.394-.261a3.861,3.861,0,0,1-.38-.28,8.716,8.716,0,0,1-2.319-2.924l.037-.018Z" transform="translate(-369.904 39.319)" fill="#9ac571"/><path d="M406.578,91.212c-.518,2.164-13.394,54.6-12.381,55.574,1.265,1.206,3.919,2.709,4.85-.05,1.733-5.134,8.1-22.974,11.583-36.528a132.554,132.554,0,0,0,3.149-17.345c.238-2.228,10.515-38.674,9.6-45.994-.307-2.489.2-5.024-5.8-4.281C409.658,42.49,407.091,89.043,406.578,91.212Z" transform="translate(-384.864 37.085)" fill="#8ca95b"/><path d="M406.586,51.552a1.988,1.988,0,0,1,.348-.633,2.373,2.373,0,0,1,.513-.513,1.893,1.893,0,0,1,.66-.325,1.1,1.1,0,0,1,.738.037,2.822,2.822,0,0,0-.623.252,5.3,5.3,0,0,0-.541.362c-.353.257-.688.555-1.1.82Z" transform="translate(-369.929 46.179)" fill="#9ac571"/><path d="M405.344,64.249c.078-.633.188-1.256.312-1.879s.261-1.238.426-1.852.38-1.215.532-1.824.275-1.238.38-1.866.206-1.251.335-1.87.238-1.242.376-1.861c.28-1.238.582-2.466.953-3.685l.037.009a36.023,36.023,0,0,1-.568,3.763c-.124.623-.275,1.238-.426,1.856s-.312,1.228-.486,1.838-.344,1.219-.468,1.843-.215,1.251-.335,1.875-.28,1.238-.449,1.847-.358,1.215-.578,1.815l-.041-.009Z" transform="translate(-371.42 45.432)" fill="#9ac571"/><path d="M395.524,54.153c-.3-3.3-.5-6.624-.628-10.043-.174-4.73-.738-10.827,1.265-15.237.041-.619.073-1.242.147-1.847.72-6.046,5.776-11.285,11.331-9.071A25.542,25.542,0,0,1,432.217,7.7c6.867,1.114,12.509,6.051,16.245,12.418a46.014,46.014,0,0,1,5.478,8.4c3.7,6.958,7.206,14.787,8.434,22.713a.2.2,0,0,1-.394.11,90.722,90.722,0,0,0-6.321-12.748c.665,1.852,1.325,3.713,1.994,5.542.215.587.426,1.178.642,1.769-.078-.115-.151-.229-.229-.344.211.468.408.931.6,1.4,1.031,2.92,2.008,5.895,2.805,8.906,1,5.432.729,11.18.234,16.548-.064.683-1.008.513-.953-.17a44.743,44.743,0,0,0-2.778-19.463c-1.5-4.162-4.442-7.733-6.509-11.565a68.811,68.811,0,0,0-6.289-5.739c-.784-.385-1.572-.756-2.384-1.063A51.686,51.686,0,0,0,431.1,31.936c-6.083-.8-12.055-1.123-17.946-3.14-.009.014-.009.023-.023.032-.358.358-.7.724-1.031,1.091A61.6,61.6,0,0,0,410.747,38c-.958,9.3-.018,18.748.376,28.085a.248.248,0,1,1-.49.06,141.842,141.842,0,0,1-2.095-26.293c.009-1.751.05-3.589.156-5.45-1.2,1.911-2.883,27.191-2.627,33.008.357,8.1,2.2,15.3,3.956,23.153.073.335-.376.417-.5.138-2.631-5.84-5.143-11.592-6.582-17.927-.463-2.049-1.036-4.368-1.568-6.775.266,1.875.628,3.75,1.031,5.675,1.517,7.325,3.438,14.6,3.328,22.131-.009.358-.458.344-.582.073-5.391-12.078-11.262-26.091-9.626-39.728Z" transform="translate(-384.206 -5.01)" fill="#3e50b4"/><path d="M404.489,15.231a5.847,5.847,0,0,1,1.911-.27.033.033,0,0,1,.014.06c-.573.257-1.123.55-1.7.8a4.1,4.1,0,0,0-.61.362.607.607,0,0,1,.472.069.469.469,0,0,1,.092.752c-.362.321-.623.179-1.022.037a.354.354,0,0,1-.119-.509,1.764,1.764,0,0,1-.362.147c-.261.073-.362-.3-.257-.49.3-.55,1.054-.77,1.577-.958Z" transform="translate(-374.387 4.089)" fill="#2c3f7e"/><path d="M402.371,13.565l.124-.064c.738-.39.94,1.228.128,1.031l-.138-.032a.51.51,0,0,1-.115-.935Z" transform="translate(-375.299 2.267)" fill="#2c3f7e"/><path d="M401.5,17.188a.223.223,0,0,1,.422.138c-1.183,5.863-2.911,11.372-3.433,17.437-.578,6.66-.568,13.453-.706,20.15a.1.1,0,0,1-.193,0c-.609-12.083-1.178-26.792,3.91-37.72Z" transform="translate(-381.195 6.602)" fill="#2c3f7e"/><path d="M402.359,12.532a2.28,2.28,0,0,1,1.206-.7c.307-.083.5.449.238.628a7.137,7.137,0,0,0-.83.756,4.554,4.554,0,0,0-.426.509,2.037,2.037,0,0,1-.564.38c-.179.119-.376-.05-.316-.275a2.721,2.721,0,0,1,.692-1.3Z" transform="translate(-375.846 0.33)" fill="#2c3f7e"/><path d="M402.72,14.607a2.042,2.042,0,0,1,1.93-.142.248.248,0,0,1,.05.39,2.042,2.042,0,0,1-1.911.335.317.317,0,0,1-.069-.582Z" transform="translate(-374.764 3.26)" fill="#2c3f7e"/><path d="M405.167,15.222c13.431-4.029,24.61,3.31,35.139,12.234.119.105,0,.344-.138.261-5.157-2.989-9.75-6.986-15-9.809-6.546-3.52-12.972-2.494-19.839-2.044C405,15.886,404.823,15.322,405.167,15.222Z" transform="translate(-371.856 3.045)" fill="#2c3f7e"/><path d="M423.272,13.82c-3.942-3.488-8.48-3.122-13.133-3.319-.193-.009-.22-.344-.05-.408,4.158-1.526,10.185.06,13.385,3.438C423.625,13.692,423.447,13.972,423.272,13.82Z" transform="translate(-365.86 -2.448)" fill="#2c3f7e"/><path d="M396.579,22.735a.166.166,0,0,1-.316-.1,12.16,12.16,0,0,1,5.592-8.1c.234-.138.454.289.238.445C399.613,16.8,397.816,19.8,396.579,22.735Z" transform="translate(-382.323 3.548)" fill="#2c3f7e"/><path d="M407.323,13.311a37.7,37.7,0,0,0-4,3.03c-.2.16-.468-.078-.38-.335.99-2.924,5.207-3.96,7.407-5.386.028-.018.064.014.041.041a10.645,10.645,0,0,1-3.071,2.649Z" transform="translate(-374.319 -1.123)" fill="#2c3f7e"/><path d="M438.464,8.424c-14.384,4.208-28.8,8.512-42.1,15.658a66.307,66.307,0,0,1-1.838,10.025l52.439-20.535A33.019,33.019,0,0,1,438.464,8.424Z" transform="translate(-384.398 -3.753)" fill="#ef592a"/><path d="M399.852,8.093c-4.483,5.652-5.033,16.607-4.355,23.753C408.8,24.7,423.211,20.4,437.591,16.192c-4.327-6-10.318-13.412-13.985-14.1-6.239-1.173-10.2,5.7-10.2,5.7s-8.906-5.551-13.55.3Z" transform="translate(-383.525 -11.512)" fill="#362e1d"/><path d="M402.843,34.806c-1.013,1.293-.8,3.021-.949,6.55-8.049,2.539-11.661,2.778-12.537.188-1.591-4.7,10.612-11.391,33.031-20.719s43.844-13.953,44.9-10.662c.715,2.237-4.382,7.5-10,10.877-2.081-2.668-4.726-5.413-5.317-5.189,0,0-39.439,15.072-49.125,18.954Z" transform="translate(-390.769 -2.934)" fill="#362e1d"/></g></g></g></svg>